<svg width="772" height="238" viewBox="0 0 772 238" fill="none" xmlns="http://www.w3.org/2000/svg">
<path d="M546.993 103.185C551.09 91.9621 556.357 81.8845 564.783 73.7001C572.103 66.5898 580.708 61.6263 590.262 58.2936C607.85 52.1585 624.997 53.5784 640.906 63.0987C650.741 68.9845 656.957 78.5139 660.925 89.1561C664.967 99.9929 664.732 111.523 663.8 122.75C662.666 136.426 658.08 149.3 649.832 160.438C636.941 177.846 619.758 187.128 597.753 187.062C589.185 187.036 580.76 186.866 572.85 183.026C561.499 177.516 552.986 169.342 547.95 157.575C542.824 145.598 542.227 133.038 543.145 120.406C543.556 114.74 545.662 109.198 546.993 103.185ZM563.022 127.524C563.349 132.922 562.975 138.478 564.16 143.68C566.109 152.231 569.788 159.947 577.598 165.186C585.93 170.774 594.645 171.618 604.383 170.144C623.641 167.228 634.585 154.877 640.732 138.033C645.307 125.498 645.391 112 642.911 98.8122C641.066 89.0003 636.363 80.695 626.977 76.0894C618.625 71.9911 609.992 71.1583 600.605 72.8268C591.683 74.4126 583.95 78.0953 578.366 84.4764C568.008 96.3131 562.537 110.479 563.022 127.524Z" fill="#F1DAC0"/>
<path d="M445.642 186.999C441.013 186.996 436.843 186.842 432.69 187.046C429.109 187.221 427.451 185.798 426.671 182.261C424.464 172.253 421.93 162.316 419.444 152.015C403.469 152.015 387.34 151.959 371.214 152.131C370.039 152.143 368.37 153.559 367.8 154.741C364.053 162.508 360.436 170.342 356.992 178.248C353.921 185.299 351.537 187.001 343.636 186.998C340.152 186.997 336.669 186.998 332.495 186.998C333.881 183.821 334.965 181.043 336.277 178.376C347.021 156.543 357.896 134.774 368.551 112.897C376.191 97.2115 383.522 81.3763 391.071 65.6459C392.322 63.0392 393.814 60.5065 395.524 58.1812C396.287 57.143 397.836 56.1538 399.077 56.0893C403.727 55.8472 408.409 55.8156 413.049 56.1355C414.105 56.2083 415.636 57.8517 415.941 59.0321C418.753 69.9271 421.284 80.894 424.011 91.8115C428.45 109.582 433.011 127.322 437.451 145.092C440.69 158.053 443.848 171.034 446.93 184.032C447.138 184.908 446.404 186.007 445.642 186.999ZM391.019 106.316C386.052 116.411 381.085 126.505 376.037 136.764C389.649 136.764 402.731 136.764 416.262 136.764C412.04 117.421 407.893 98.4163 403.484 78.2083C398.979 88.0798 394.999 96.8036 391.019 106.316Z" fill="#F1DABF"/>
<path d="M756.985 54.9754C759.982 54.982 762.481 54.9951 764.98 54.9942C771.258 54.9917 773.119 57.779 770.042 63.5986C767.491 68.4244 764.347 72.977 761.116 77.3957C751.187 90.9764 741.13 104.463 731.05 117.933C719.408 133.491 707.677 148.981 696.023 164.53C694.605 166.423 693.429 168.498 691.811 170.999C712.102 170.999 731.706 171.06 751.309 170.951C755.594 170.927 757.793 171.675 756.112 176.717C755.18 179.516 755.42 182.705 755.121 185.829C724.543 185.829 694.594 185.829 664.509 185.829C662.203 179.447 665.96 174.862 669.293 170.334C685.563 148.227 701.896 126.167 718.308 104.165C725.766 94.1672 733.467 84.3505 741.026 74.4267C741.683 73.564 742.095 72.515 742.889 71.0633C722.076 71.0633 701.726 71.0633 680.593 71.0633C681.087 67.1088 681.812 63.6058 681.895 60.0876C682.008 55.35 684.825 54.951 688.537 54.9616C711.187 55.0263 733.838 54.9828 756.985 54.9754Z" fill="#F1DABF"/>
<path d="M509 55.9946C520.324 55.996 531.151 56.1349 541.97 55.9265C545.914 55.8505 547.58 57.1456 547.03 61.1051C546.628 64.0049 546.897 67.1666 545.775 69.7351C545.095 71.2939 542.359 72.8136 540.508 72.8624C529.546 73.1517 518.573 73.005 507.35 73.005C506.571 80.9856 505.944 88.7799 505.018 96.5387C504.097 104.258 502.868 111.94 501.791 119.64C500.848 126.385 499.877 133.126 499.013 139.881C497.649 150.55 496.334 161.224 495.061 171.904C494.618 175.626 494.34 179.369 494.022 183.105C493.8 185.715 492.914 187.267 489.799 187.057C485.821 186.788 481.81 186.972 477.814 186.999C475.243 187.017 474.362 186.348 474.739 183.31C476.388 170.016 477.415 156.644 479.071 143.351C480.794 129.524 483.103 115.771 484.916 101.954C485.874 94.6481 486.299 87.2728 487.016 79.9337C487.22 77.8468 487.604 75.7774 488.009 72.983C480.03 72.983 472.135 72.9817 464.239 72.9836C461.408 72.9843 458.543 72.7145 455.754 73.0594C451.085 73.6369 449.236 71.8718 449.956 67.238C450.404 64.3583 450.317 61.3164 451.267 58.6293C451.701 57.4013 454.053 56.1237 455.547 56.109C473.197 55.9348 490.849 55.9956 509 55.9946Z" fill="#F1DABF"/>
<path d="M164.745 97.3887C154.627 71.5958 136.986 53.9198 110.733 46.1843C88.0817 39.5097 66.3048 42.2048 45.6018 54.6664C27.8572 65.3472 15.9977 80.2759 9.85258 99.6577C1.24299 126.812 5.80871 151.967 23.1589 174.632C35.9809 191.382 52.9459 201.516 73.707 204.944C93.461 208.206 112.259 205.733 129.31 194.324C132.238 192.365 135.145 192.094 136.979 195.989C104.116 220.118 58.0596 215.739 29.6036 189.853C-6.24577 157.242 -7.20214 107.641 15.8165 75.0056C42.2229 37.5673 89.921 26.1604 131.803 49.5115C152.257 60.9156 165.452 78.7669 171.576 101.313C177.639 123.631 174.981 145.298 164.177 166.073C160.888 164.453 160.045 162.056 161.835 158.608C169.289 144.248 169.848 128.727 168.839 113.125C168.503 107.933 166.304 102.861 164.745 97.3887Z" fill="#F2DABE"/>
<path d="M139.741 70.2436C164.745 94.3072 168.505 130.052 155.293 157.117C152.456 155.612 151.615 154.074 152.641 150.464C154.932 142.405 157.642 134.072 157.624 125.856C157.605 117.143 155.729 108.033 152.714 99.8109C146.299 82.3216 134.314 68.871 117.27 61.251C97.3867 52.3618 77.1832 52.2037 57.0413 61.9007C35.202 72.4148 22.5029 90.3215 18.4718 113.11C15.1156 132.083 19.3736 150.53 31.8658 166.616C43.251 181.277 58.0866 189.937 75.6535 193.626C90.0731 196.654 104.295 193.82 117.729 187.674C120.079 186.599 122.335 185.318 125.628 183.62C126.329 184.491 127.291 185.687 128.439 187.113C121.176 193.033 113.011 196.027 104.528 197.851C98.3376 199.182 91.8662 200.067 85.5641 199.852C69.7188 199.312 55.1638 194.52 42.3255 184.879C26.2099 172.778 16.4027 156.533 13.2365 136.996C9.81663 115.894 14.5144 96.1883 27.6502 78.7934C39.9449 62.5121 56.441 53.1024 76.2484 50.1848C97.1367 47.1079 116.52 51.8242 133.459 64.9742C135.523 66.577 137.481 68.3174 139.741 70.2436Z" fill="#F2DBBE"/>
<path d="M47.1731 123.524C46.0099 117.799 44.9085 112.448 44.0308 107.06C43.3246 102.726 45.1359 99.4193 49.0618 96.8599C50.0711 97.7739 51.1859 98.6996 52.2063 99.7197C89.8845 137.385 127.536 175.076 165.263 212.693C167.942 215.364 169.489 217.5 165.399 219.839C145.92 200.332 126.448 180.832 106.603 160.958C101.94 166.048 97.9445 170.41 93.5986 175.154C76.9484 158.094 59.9254 143.014 47.1731 123.524ZM85.5005 159.002C87.9001 161.473 90.2996 163.945 92.6478 166.364C95.932 162.998 98.7702 160.09 100.552 158.264C83.2963 141.004 65.9015 123.605 48.9737 106.674C48.2516 114.66 52.0722 122.308 57.4815 128.728C66.1808 139.051 75.7807 148.617 85.5005 159.002Z" fill="#F2DABD"/>
<path d="M84.2484 80.7493C81.6492 78.1375 79.1421 75.9049 77.0473 73.3362C76.4183 72.5647 76.9382 70.8563 76.9319 69.5771C78.0932 69.7027 79.6947 69.3792 80.3499 70.0212C90.1057 79.5821 99.8313 89.1786 109.338 98.9859C112.152 101.888 111.646 111.142 109.006 115.272C135.735 141.972 162.48 168.688 189.454 195.632C188.287 196.978 187.36 198.046 186.416 199.135C159.462 172.109 132.687 145.262 106.169 118.674C96.7199 122.865 91.4208 121.926 84.9818 115.48C76.9729 107.464 68.9116 99.4975 61.0328 91.3548C60.0612 90.3507 60.0713 88.3967 59.6265 86.8829C61.2613 87.2717 63.4133 87.1282 64.4487 88.1342C72.1958 95.6613 79.7222 103.416 86.988 110.765C88.9299 109.152 90.5814 107.78 92.2078 106.429C83.4271 97.7711 74.9222 89.3851 66.2126 80.7973C67.6998 79.0487 68.6156 77.9721 69.7688 76.6163C78.4197 85.4056 86.8842 94.0054 95.5211 102.781C97.7211 100.686 99.2613 99.2195 101.081 97.4872C95.5081 91.9463 90.0033 86.473 84.2484 80.7493ZM93.0749 115.013C95.5632 115.325 98.0515 115.637 100.54 115.948C100.657 115.487 100.774 115.025 100.891 114.563C99.4521 113.053 98.0135 111.543 96.3816 109.83C94.9817 111.566 93.6748 113.186 93.0749 115.013ZM101.034 107.553C102.203 108.655 103.371 109.758 104.539 110.86C104.981 110.761 105.423 110.662 105.865 110.563C105.643 107.831 105.42 105.1 105.197 102.368C104.732 102.323 104.267 102.278 103.802 102.233C102.723 103.833 101.643 105.434 101.034 107.553Z" fill="#F1DABF"/>
<path d="M258.954 1.923C260.072 1.52332 261.19 1.12363 262.752 0.56543C262.855 2.59781 262.991 4.02713 262.991 5.45642C263.001 81.3634 263.008 157.27 262.957 233.177C262.955 235.239 264.42 238.681 259.423 237.452C258.977 158.587 258.966 80.2552 258.954 1.923Z" fill="#F1DABF"/>
<path d="M258.564 2.12939C258.966 80.2553 258.977 158.588 258.981 237.378C258.649 236.717 258.041 235.599 258.041 234.48C257.997 157.593 258.003 80.7056 258.011 3.81842C258.011 3.32419 258.118 2.82999 258.564 2.12939Z" fill="white"/>
<path d="M142.31 186.716C146.242 181.532 150.408 176.63 154.601 171.697C158.158 173.814 159.268 175.65 155.951 178.658C153.193 181.157 150.846 184.133 148.472 187.026C146.381 189.574 144.509 189.626 142.31 186.716Z" fill="#F2DABE"/>
<path d="M146.303 171.251C143.278 174.736 140.502 177.94 137.612 181.275C133.693 179.253 132.758 177.261 136.209 174.226C138.56 172.158 140.798 169.906 142.765 167.476C144.255 165.637 145.215 162.327 148.116 164.843C150.728 167.11 148.343 169.219 146.303 171.251Z" fill="#F2DABE"/>
</svg>
