<svg width="766" height="332" viewBox="0 0 766 332" fill="none" xmlns="http://www.w3.org/2000/svg">
<path d="M172 193.992C114.541 193.992 57.5821 193.992 0.311523 193.992C0.311523 187.719 0.311523 181.653 0.311523 175.291C85.9586 175.291 171.67 175.291 257.691 175.291C257.691 181.268 257.691 187.337 257.691 193.992C229.34 193.992 200.92 193.992 172 193.992Z" fill="#F1DABF"/>
<path d="M692 173.001C716.803 173.001 741.106 173.001 765.704 173.001C765.704 179.301 765.704 185.368 765.704 191.727C680.343 191.727 594.96 191.727 509.289 191.727C509.289 185.712 509.289 179.642 509.289 173.001C570.007 173.001 630.753 173.001 692 173.001Z" fill="#F1DABF"/>
<path d="M410.797 331.366C393.461 328.684 378.902 315.321 375.119 297.122C372.237 283.252 373.136 269.53 380.566 256.876C387.092 245.761 396.954 239.3 409.43 237.071C420.804 235.039 432.093 234.968 443.175 239.525C456.929 245.181 465.107 255.448 468.908 269.374C472.208 281.466 471.604 293.79 466.801 305.201C461.141 318.648 450.808 328.059 436.181 330.767C428.056 332.271 419.498 331.44 410.797 331.366ZM400.406 305.06C401.413 306.344 402.211 307.897 403.461 308.87C411.579 315.188 420.749 317.725 430.482 313.887C435.368 311.96 440.304 308.819 443.78 304.939C450.669 297.25 450.958 287.236 449.814 277.646C448.78 268.982 444.986 261.247 436.975 256.512C430.995 252.977 424.573 252.183 417.635 252.875C411.042 253.534 405.492 256.453 401.683 261.108C391.944 273.008 390.955 292.073 400.406 305.06Z" fill="#F1DABF"/>
<path d="M219.162 315.182C229.163 289.873 239.022 264.932 249.057 240.062C249.591 238.737 251.559 237.216 252.936 237.138C258.74 236.813 264.573 237.001 270.407 237.001C282.713 268.242 294.944 299.295 307.431 330.998C301.189 330.998 295.56 331.33 290.012 330.805C288.243 330.638 286.01 328.518 285.167 326.735C282.837 321.805 280.857 316.663 279.293 311.439C278.537 308.914 277.685 307.914 275.015 307.948C265.018 308.077 255.017 307.901 245.024 308.117C243.684 308.146 241.689 309.473 241.177 310.694C238.89 316.143 237.117 321.805 234.955 327.309C234.416 328.68 233.169 330.747 232.159 330.8C225.947 331.124 219.709 330.962 212.712 330.962C215.119 325.121 217.088 320.343 219.162 315.182ZM261.984 265.335C261.53 263.67 261.076 262.004 260.285 259.104C255.624 271.82 251.426 283.272 247.244 294.681C256.08 294.681 264.457 294.681 273.312 294.681C269.565 284.832 265.985 275.422 261.984 265.335Z" fill="#F1DABF"/>
<path d="M510 237C522.807 237 535.114 237 547.259 237C550.69 246.206 545.132 252.506 540.596 258.891C529.335 274.745 517.791 290.398 506.399 306.159C504.241 309.144 502.264 312.259 499.761 315.97C515.878 315.97 531.229 315.97 546.786 315.97C546.786 321.009 546.786 325.627 546.786 330.623C522.863 330.623 498.799 330.623 474.315 330.623C473.841 324.95 473.636 319.728 477.966 314.18C488.471 300.717 497.969 286.468 507.829 272.504C512.518 265.863 517.107 259.151 522.045 252.032C506.832 252.032 492.233 252.032 477.318 252.032C477.318 247.078 477.318 242.343 477.318 237C487.976 237 498.738 237 510 237Z" fill="#F1DABF"/>
<path d="M320.827 25.6768C314.269 33.5794 307.062 40.6601 301.896 49.005C296.554 57.6354 293.206 67.3631 291.853 77.806C289.97 92.3346 290.951 106.357 296.039 120.062C299.522 129.443 304.737 137.71 310.959 145.64C321.263 158.774 334.746 166.851 350.082 171.93C374.627 180.058 398.081 176.737 420.146 163.372C422.956 161.67 425.321 161.459 426.967 164.852C397.357 188.377 347.868 185.842 318.193 160.859C275.911 125.262 278.695 66.4923 304.991 34.5185C337.5 -5.01026 388.581 -7.5698 423.292 13.927C466.907 40.9383 476.988 94.6975 455.271 134.133C452.053 132.522 451.291 130.484 452.938 127.011C459.427 113.329 462.342 98.7928 460.888 83.7551C459.204 66.3391 452.844 50.6617 441.577 36.9948C428.692 21.3653 412.234 11.4318 392.674 7.50967C375.835 4.13327 358.805 4.72561 342.982 12.7046C335.458 16.4992 328.364 21.1482 320.827 25.6768Z" fill="#F1DABF"/>
<path d="M325 272C325 265.197 325 258.893 325 252.17C315.71 252.17 306.642 252.17 297.291 252.17C297.291 247.027 297.291 242.296 297.291 237.279C322.313 237.279 347.361 237.279 372.706 237.279C372.706 241.96 372.706 246.69 372.706 251.853C363.341 251.853 353.94 251.853 344.148 251.853C344.148 278.325 344.148 304.373 344.148 330.709C337.692 330.709 331.628 330.709 325 330.709C325 311.323 325 291.911 325 272Z" fill="#F1DABF"/>
<path d="M312.237 55.4001C305.824 67.8629 302.251 80.6594 303.03 94.3721C303.981 111.118 310.174 125.717 321.045 138.581C331.876 151.396 345.824 158.939 361.682 162.654C376.506 166.126 391.124 163.669 405.037 157.471C407.25 156.485 409.401 155.336 411.5 154.123C414.257 152.529 416.432 152.746 417.914 155.805C394.721 173.914 354.899 173.34 330.084 154.527C291.532 125.298 289.75 77.5753 311.624 46.3028C334.509 13.5852 375.582 3.3208 412.604 21.9769C444.099 37.8475 466.56 80.6328 445.913 125.801C444.56 124.005 443.404 122.471 442.235 120.921C453.794 94.9281 450.46 70.3865 433.859 47.3736C422.74 31.9606 407.406 22.6107 389.041 19.2078C366.257 14.986 345.548 20.6712 328.342 36.4865C322.381 41.9663 317.693 48.8321 312.237 55.4001Z" fill="#F1DABF"/>
<path d="M392.566 85.9467C384.853 89.0912 378.693 87.737 373.09 81.7327C365.136 73.2097 356.747 65.0842 348.363 56.9758C345.514 54.2212 345.136 52.1726 348.971 49.9237C357.729 58.7683 366.563 67.6887 375.676 76.8924C377.584 74.4389 378.9 72.7467 380.405 70.8114C373.131 63.5708 365.357 55.6161 357.319 47.938C354.028 44.794 354.641 42.8474 357.981 40.9251C367.244 49.5877 376.309 58.0646 385.373 66.5415C384.953 66.8685 384.532 67.1955 384.112 67.5225C385.704 66.0167 387.296 64.5109 389.006 62.8925C380.231 54.2085 371.389 45.4598 362.594 36.7561C364.909 32.4545 366.908 32.0662 370 35.285C378.196 43.8147 386.456 52.2985 395.04 60.4316C400.801 65.8899 402.518 73.579 398.586 79.9108C426.56 107.9 454.376 135.732 482.013 163.384C480.307 165.111 479.119 166.313 477.931 167.515C477.525 168.21 477.12 168.905 476.715 169.6C475.867 167.956 475.365 165.97 474.121 164.72C448.616 139.084 423.041 113.516 397.403 88.0116C396.256 86.87 394.394 86.4461 392.566 85.9467ZM393.843 67.4173C392.105 68.9298 390.368 70.4423 388.504 72.0648C390.551 74.0056 392.062 75.4379 393.573 76.8702C394.062 76.7595 394.552 76.6489 395.041 76.5383C394.701 73.7401 394.361 70.9419 393.843 67.4173ZM383.902 81.9956C385.843 81.8313 387.783 81.667 389.972 81.4817C387.906 79.2865 386.401 77.6868 385.279 76.495C383.631 77.8775 381.971 79.2694 380.342 80.6356C381.435 81.1664 382.279 81.5766 383.902 81.9956Z" fill="#F1DABF"/>
<path d="M441.751 175.249C426.097 159.593 410.693 144.187 395.433 128.925C390.872 133.545 386.57 137.903 381.842 142.692C366.873 125.843 349.004 112.786 336.992 94.3259C332.041 86.7176 327.889 78.435 331.076 68.8058C331.755 66.7575 332.998 64.3978 334.697 63.3981C335.536 62.9046 338.313 64.8753 339.693 66.2519C376.495 102.954 413.212 139.74 450.004 176.452C453.229 179.67 456.867 182.473 460.588 185.709C459.07 187.326 457.857 188.618 456.397 190.173C451.55 185.232 446.776 180.366 441.751 175.249ZM370.001 103.499C358.866 92.361 347.732 81.2231 336.511 69.9986C333.118 75.8624 335.895 81.0235 338.347 85.2885C342.326 92.2121 347.218 98.7499 352.524 104.743C361.766 115.181 371.616 125.081 380.743 134.712C384.427 131.044 387.581 127.905 391.044 124.457C384.347 117.787 377.424 110.893 370.001 103.499Z" fill="#F1DABF"/>
<path d="M434.355 143.233C433.043 144.538 431.907 145.519 430.977 146.668C428.502 149.727 426.23 149.909 424.084 146.309C427.742 141.723 431.39 137.031 435.237 132.509C435.616 132.064 437.647 132.281 438.143 132.855C438.874 133.7 439.539 135.46 439.128 136.27C437.918 138.657 436.165 140.768 434.355 143.233Z" fill="#F1DABF"/>
<path d="M447.159 141.673C447.517 143.227 448.209 144.977 447.626 145.702C444.158 150.013 440.394 154.087 436.503 158.497C435.114 157.349 434.026 156.45 433.022 155.622C433.102 155.077 433.035 154.664 433.211 154.458C436.8 150.263 440.363 146.044 444.087 141.971C444.61 141.399 445.944 141.569 447.159 141.673Z" fill="#F1DABF"/>
</svg>
