<svg width="772" height="238" viewBox="0 0 772 238" fill="none" xmlns="http://www.w3.org/2000/svg">
<path d="M546.707 102.62C550.805 91.3967 556.071 81.319 564.497 73.1347C571.817 66.0244 580.423 61.0608 589.976 57.7282C607.564 51.5931 624.711 53.0129 640.62 62.5332C650.456 68.4191 656.671 77.9485 660.64 88.5907C664.681 99.4275 664.446 110.957 663.515 122.184C662.38 135.86 657.794 148.734 649.546 159.872C636.655 177.281 619.472 186.563 597.467 186.496C588.899 186.471 580.474 186.3 572.564 182.461C561.213 176.951 552.7 168.777 547.664 157.01C542.538 145.032 541.941 132.472 542.859 119.84C543.271 114.175 545.376 108.633 546.707 102.62ZM562.736 126.959C563.063 132.356 562.689 137.913 563.874 143.114C565.823 151.665 569.502 159.381 577.313 164.62C585.645 170.209 594.359 171.053 604.098 169.578C623.355 166.662 634.299 154.311 640.446 137.468C645.021 124.932 645.106 111.434 642.626 98.2468C640.781 88.4349 636.078 80.1296 626.691 75.5239C618.339 71.4257 609.706 70.5929 600.319 72.2614C591.397 73.8472 583.664 77.5298 578.08 83.9109C567.723 95.7477 562.251 109.913 562.736 126.959Z" fill="#F1DABF"/>
<path d="M445.357 186.434C440.727 186.431 436.557 186.277 432.404 186.48C428.823 186.656 427.165 185.233 426.385 181.696C424.179 171.687 421.645 161.751 419.159 151.449C403.183 151.449 387.055 151.394 370.928 151.565C369.754 151.578 368.085 152.993 367.514 154.176C363.768 161.942 360.15 169.777 356.706 177.683C353.635 184.734 351.252 186.435 343.35 186.433C339.867 186.432 336.383 186.433 332.209 186.433C333.596 183.255 334.68 180.477 335.992 177.811C346.736 155.978 357.61 134.208 368.265 112.332C375.905 96.6461 383.237 80.8108 390.785 65.0804C392.036 62.4738 393.529 59.9411 395.238 57.6158C396.002 56.5775 397.55 55.5884 398.792 55.5238C403.441 55.2818 408.123 55.2502 412.764 55.5701C413.819 55.6429 415.351 57.2862 415.655 58.4667C418.467 69.3617 420.999 80.3285 423.726 91.246C428.165 109.017 432.725 126.757 437.165 144.527C440.404 157.487 443.562 170.468 446.644 183.466C446.852 184.343 446.119 185.442 445.357 186.434ZM390.734 105.751C385.767 115.845 380.8 125.939 375.752 136.199C389.363 136.199 402.445 136.199 415.976 136.199C411.755 116.855 407.608 97.8508 403.198 77.6429C398.694 87.5144 394.714 96.2382 390.734 105.751Z" fill="#F1DABF"/>
<path d="M756.7 54.41C759.696 54.4166 762.195 54.4297 764.694 54.4287C770.972 54.4263 772.833 57.2136 769.757 63.0332C767.206 67.859 764.061 72.4116 760.831 76.8302C750.902 90.411 740.844 103.898 730.764 117.368C719.123 132.925 707.391 148.416 695.737 163.965C694.319 165.857 693.143 167.932 691.525 170.433C711.816 170.433 731.42 170.494 751.024 170.385C755.308 170.361 757.507 171.109 755.827 176.152C754.894 178.95 755.134 182.14 754.835 185.263C724.257 185.263 694.308 185.263 664.223 185.263C661.917 178.882 665.675 174.296 669.007 169.768C685.277 147.661 701.611 125.601 718.023 103.6C725.481 93.6018 733.182 83.7851 740.74 73.8613C741.397 72.9986 741.81 71.9495 742.603 70.4979C721.79 70.4979 701.44 70.4979 680.307 70.4979C680.802 66.5434 681.527 63.0404 681.61 59.5222C681.722 54.7846 684.539 54.3856 688.252 54.3962C710.902 54.4609 733.552 54.4174 756.7 54.41Z" fill="#F1DABF"/>
<path d="M508.714 55.4292C520.038 55.4306 530.865 55.5694 541.685 55.361C545.628 55.2851 547.294 56.5802 546.745 60.5396C546.342 63.4395 546.611 66.6011 545.49 69.1697C544.809 70.7285 542.074 72.2482 540.222 72.297C529.261 72.5862 518.288 72.4396 507.064 72.4396C506.286 80.4202 505.658 88.2145 504.732 95.9733C503.811 103.692 502.582 111.374 501.506 119.075C500.563 125.82 499.591 132.561 498.727 139.316C497.363 149.984 496.049 160.659 494.776 171.338C494.332 175.061 494.055 178.803 493.736 182.54C493.514 185.149 492.628 186.701 489.513 186.491C485.535 186.223 481.525 186.406 477.528 186.434C474.957 186.451 474.077 185.782 474.453 182.745C476.102 169.45 477.129 156.079 478.785 142.786C480.508 128.959 482.817 115.206 484.63 101.389C485.589 94.0827 486.014 86.7073 486.731 79.3683C486.935 77.2813 487.318 75.2119 487.723 72.4175C479.745 72.4175 471.849 72.4163 463.953 72.4182C461.122 72.4188 458.257 72.1491 455.468 72.4939C450.799 73.0714 448.95 71.3063 449.671 66.6725C450.118 63.7929 450.031 60.7509 450.981 58.0639C451.415 56.8358 453.767 55.5583 455.261 55.5436C472.911 55.3694 490.563 55.4302 508.714 55.4292Z" fill="#F1DABF"/>
<path d="M164.46 96.8233C154.342 71.0303 136.7 53.3544 110.448 45.6188C87.7961 38.9443 66.0191 41.6394 45.3161 54.101C27.5716 64.7818 15.712 79.7105 9.56693 99.0922C0.957343 126.247 5.52306 151.402 22.8732 174.067C35.6952 190.816 52.6602 200.951 73.4213 204.379C93.1754 207.641 111.974 205.167 129.024 193.759C131.952 191.8 134.86 191.529 136.693 195.423C103.83 219.553 57.7739 215.174 29.318 189.288C-6.53141 156.676 -7.48779 107.075 15.5308 74.4402C41.9372 37.0018 89.6353 25.595 131.517 48.9461C151.971 60.3502 165.166 78.2015 171.291 100.747C177.354 123.065 174.695 144.733 163.891 165.508C160.603 163.888 159.76 161.49 161.549 158.042C169.004 143.682 169.562 128.161 168.553 112.56C168.217 107.368 166.019 102.296 164.46 96.8233Z" fill="#F1DABF"/>
<path d="M139.455 69.6782C164.46 93.7417 168.22 129.486 155.007 156.552C152.17 155.047 151.329 153.509 152.355 149.898C154.647 141.839 157.356 133.506 157.339 125.291C157.32 116.578 155.444 107.467 152.428 99.2455C146.014 81.7562 134.028 68.3056 116.984 60.6856C97.101 51.7963 76.8975 51.6383 56.7557 61.3352C34.9164 71.8494 22.2172 89.7561 18.1861 112.544C14.8299 131.518 19.0879 149.965 31.5802 166.051C42.9654 180.711 57.8009 189.371 75.3678 193.061C89.7874 196.089 104.009 193.255 117.443 187.109C119.793 186.033 122.049 184.753 125.343 183.055C126.043 183.925 127.006 185.122 128.153 186.548C120.89 192.468 112.725 195.462 104.243 197.285C98.0519 198.616 91.5806 199.502 85.2785 199.287C69.4331 198.747 54.8782 193.954 42.0398 184.314C25.9243 172.213 16.117 155.967 12.9509 136.431C9.53099 115.329 14.2288 95.6228 27.3645 78.2279C39.6593 61.9467 56.1554 52.5369 75.9628 49.6194C96.8511 46.5425 116.234 51.2588 133.173 64.4088C135.237 66.0115 137.195 67.752 139.455 69.6782Z" fill="#F1DABF"/>
<path d="M46.8874 122.958C45.7243 117.233 44.6229 111.882 43.7452 106.495C43.039 102.16 44.8503 98.8539 48.7761 96.2944C49.7855 97.2085 50.9002 98.1342 51.9206 99.1542C89.5989 136.819 127.25 174.511 164.977 212.127C167.656 214.798 169.203 216.935 165.113 219.273C145.634 199.767 126.163 180.267 106.318 160.393C101.655 165.483 97.6589 169.845 93.3129 174.589C76.6627 157.529 59.6397 142.449 46.8874 122.958ZM85.2149 158.436C87.6144 160.908 90.014 163.38 92.3622 165.798C95.6464 162.433 98.4845 159.524 100.267 157.698C83.0106 140.438 65.6159 123.04 48.6881 106.109C47.9659 114.094 51.7866 121.743 57.1959 128.162C65.8952 138.486 75.495 148.051 85.2149 158.436Z" fill="#F1DABF"/>
<path d="M83.9628 80.1839C81.3636 77.5721 78.8564 75.3395 76.7617 72.7707C76.1326 71.9993 76.6526 70.2909 76.6462 69.0117C77.8076 69.1373 79.409 68.8138 80.0642 69.4558C89.82 79.0167 99.5457 88.6132 109.052 98.4205C111.866 101.323 111.361 110.577 108.72 114.707C135.449 141.406 162.195 168.123 189.168 195.067C188.001 196.412 187.074 197.48 186.13 198.569C159.176 171.544 132.401 144.697 105.883 118.108C96.4343 122.3 91.1352 121.36 84.6962 114.915C76.6873 106.898 68.626 98.9321 60.7471 90.7894C59.7756 89.7852 59.7856 87.8313 59.3408 86.3174C60.9757 86.7063 63.1277 86.5628 64.163 87.5687C71.9101 95.0959 79.4366 102.85 86.7024 110.2C88.6442 108.587 90.2957 107.215 91.9222 105.864C83.1414 97.2056 74.6366 88.8197 65.927 80.2318C67.4142 78.4833 68.33 77.4066 69.4831 76.0509C78.1341 84.8401 86.5985 93.44 95.2355 102.215C97.4354 100.121 98.9756 98.6541 100.795 96.9218C95.2224 91.3809 89.7177 85.9076 83.9628 80.1839ZM92.7892 114.448C95.2775 114.759 97.7658 115.071 100.254 115.383C100.371 114.921 100.488 114.46 100.605 113.998C99.1665 112.488 97.7279 110.978 96.096 109.265C94.6961 111 93.3892 112.621 92.7892 114.448ZM100.749 106.988C101.917 108.09 103.085 109.192 104.253 110.295C104.695 110.196 105.137 110.097 105.579 109.998C105.357 107.266 105.134 104.534 104.912 101.802C104.447 101.758 103.981 101.713 103.516 101.668C102.437 103.268 101.358 104.868 100.749 106.988Z" fill="#F1DABF"/>
<path d="M258.668 1.35757C259.786 0.957886 260.905 0.558197 262.466 0C262.569 2.03238 262.705 3.4617 262.705 4.89099C262.716 80.798 262.723 156.705 262.671 232.612C262.669 234.673 264.134 238.116 259.137 236.887C258.692 158.022 258.68 79.6898 258.668 1.35757Z" fill="#F1DABF"/>
<path d="M258.279 1.56396C258.68 79.6898 258.692 158.022 258.696 236.813C258.364 236.152 257.756 235.033 257.755 233.915C257.712 157.027 257.717 80.1402 257.726 3.25299C257.726 2.75876 257.832 2.26456 258.279 1.56396Z" fill="#F1DABF"/>
<path d="M142.024 186.151C145.956 180.966 150.122 176.065 154.315 171.132C157.872 173.249 158.983 175.085 155.665 178.092C152.908 180.592 150.56 183.568 148.187 186.46C146.096 189.009 144.223 189.06 142.024 186.151Z" fill="#F1DABF"/>
<path d="M146.017 170.685C142.992 174.171 140.216 177.374 137.326 180.709C133.407 178.687 132.473 176.696 135.923 173.66C138.274 171.592 140.512 169.34 142.48 166.911C143.97 165.072 144.929 161.761 147.83 164.278C150.442 166.544 148.057 168.654 146.017 170.685Z" fill="#F1DABF"/>
</svg>
