<svg width="197" height="190" viewBox="0 0 197 190" fill="none" xmlns="http://www.w3.org/2000/svg">
<path d="M35.5157 25.1733C28.958 33.076 21.7503 40.1567 16.5848 48.5016C11.2425 57.132 7.89452 66.8597 6.54134 77.3026C4.65874 91.8311 5.63955 105.853 10.7278 119.559C14.2103 128.939 19.4257 137.206 25.6471 145.136C35.9516 158.27 49.4349 166.347 64.7709 171.426C89.3155 179.555 112.769 176.234 134.835 162.868C137.644 161.167 140.009 160.955 141.655 164.348C112.046 187.874 62.5563 185.339 32.8814 160.355C-9.40052 124.758 -6.61665 65.9889 19.6793 34.0151C52.1885 -5.51368 103.27 -8.07321 137.981 13.4236C181.596 40.4349 191.676 94.1941 169.959 133.63C166.741 132.019 165.979 129.981 167.627 126.507C174.116 112.825 177.03 98.2893 175.577 83.2517C173.893 65.8357 167.533 50.1583 156.266 36.4914C143.38 20.8618 126.922 10.9284 107.362 7.00625C90.5238 3.62985 73.4934 4.2222 57.6708 12.2012C50.146 15.9958 43.052 20.6448 35.5157 25.1733Z" fill="#F1DABF"/>
<path d="M26.9257 54.8967C20.5127 67.3595 16.9392 80.156 17.7181 93.8687C18.6692 110.614 24.8622 125.214 35.734 138.077C46.5648 150.893 60.5122 158.435 76.3704 162.15C91.1942 165.623 105.812 163.166 119.725 156.968C121.939 155.982 124.09 154.833 126.189 153.619C128.946 152.025 131.121 152.243 132.602 155.301C109.409 173.411 69.5875 172.837 44.7722 154.023C6.22002 124.795 4.43816 77.0718 26.3122 45.7994C49.1971 13.0818 90.2704 2.81739 127.293 21.4735C158.787 37.3441 181.248 80.1294 160.602 125.297C159.248 123.502 158.092 121.967 156.924 120.417C168.482 94.4247 165.148 69.8831 148.547 46.8702C137.429 31.4572 122.095 22.1073 103.73 18.7044C80.9452 14.4826 60.2365 20.1678 43.0308 35.983C37.0691 41.4629 32.3812 48.3287 26.9257 54.8967Z" fill="#F1DABF"/>
<path d="M107.255 85.4433C99.5414 88.5878 93.3818 87.2336 87.7783 81.2293C79.8244 72.7063 71.4352 64.5808 63.0513 56.4724C60.2031 53.7178 59.8247 51.6692 63.6601 49.4203C72.4181 58.2649 81.2513 67.1853 90.365 76.389C92.273 73.9354 93.5888 72.2432 95.0938 70.3079C87.8194 63.0673 80.0459 55.1127 72.0082 47.4346C68.7168 44.2906 69.3298 42.344 72.6701 40.4217C81.933 49.0843 90.9974 57.5612 100.062 66.0381C99.6414 66.3651 99.2211 66.6921 98.8008 67.0191C100.393 65.5133 101.984 64.0075 103.695 62.3891C94.9194 53.7051 86.0782 44.9563 77.2825 36.2527C79.5982 31.9511 81.5964 31.5627 84.6891 34.7816C92.8843 43.3112 101.145 51.7951 109.729 59.9282C115.49 65.3865 117.207 73.0756 113.275 79.4074C141.248 107.397 169.064 135.228 196.701 162.881C194.995 164.607 193.808 165.81 192.62 167.012C192.214 167.707 191.809 168.402 191.403 169.096C190.556 167.453 190.054 165.466 188.81 164.216C163.305 138.58 137.729 113.013 112.092 87.5082C110.945 86.3665 109.083 85.9426 107.255 85.4433ZM108.531 66.9139C106.794 68.4264 105.056 69.9389 103.193 71.5614C105.24 73.5022 106.751 74.9345 108.262 76.3667C108.751 76.2561 109.24 76.1455 109.73 76.0349C109.39 73.2367 109.05 70.4384 108.531 66.9139ZM98.5911 81.4921C100.532 81.3279 102.472 81.1636 104.661 80.9783C102.595 78.7831 101.089 77.1834 99.9678 75.9916C98.3194 77.374 96.6597 78.766 95.0307 80.1322C96.1233 80.663 96.9673 81.0731 98.5911 81.4921Z" fill="#F1DABF"/>
<path d="M156.439 174.746C140.786 159.09 125.382 143.684 110.122 128.422C105.561 133.041 101.259 137.399 96.5309 142.188C81.5614 125.34 63.6923 112.283 51.6804 93.8225C46.7298 86.2142 42.577 77.9316 45.765 68.3024C46.4431 66.254 47.6869 63.8944 49.3859 62.8947C50.2246 62.4011 53.0011 64.3719 54.3814 65.7485C91.1833 102.45 127.901 139.237 164.693 175.948C167.917 179.166 171.555 181.97 175.277 185.206C173.758 186.823 172.545 188.115 171.085 189.669C166.239 184.729 161.464 179.862 156.439 174.746ZM84.6896 102.995C73.5549 91.8576 62.4203 80.7197 51.1991 69.4952C47.8066 75.359 50.5833 80.5201 53.035 84.7851C57.015 91.7087 61.9062 98.2465 67.2122 104.239C76.4541 114.678 86.3045 124.578 95.4311 134.208C99.1156 130.541 102.269 127.402 105.733 123.954C99.0354 117.284 92.1125 110.39 84.6896 102.995Z" fill="#F1DABF"/>
<path d="M149.044 142.73C147.732 144.034 146.595 145.015 145.666 146.164C143.19 149.224 140.918 149.405 138.772 145.806C142.43 141.219 146.078 136.528 149.925 132.006C150.304 131.56 152.336 131.778 152.832 132.352C153.562 133.197 154.227 134.956 153.817 135.767C152.607 138.153 150.854 140.264 149.044 142.73Z" fill="#F1DABF"/>
<path d="M161.847 141.169C162.206 142.723 162.898 144.474 162.315 145.198C158.846 149.509 155.083 153.583 151.192 157.993C149.803 156.846 148.714 155.947 147.711 155.118C147.79 154.574 147.724 154.16 147.9 153.955C151.488 149.76 155.052 145.54 158.775 141.467C159.298 140.895 160.633 141.065 161.847 141.169Z" fill="#F1DABF"/>
</svg>
